<mxfile host="app.diagrams.net" modified="2022-01-02T15:02:22.773Z" agent="5.0 (Macintosh; Intel Mac OS X 10_15_7) AppleWebKit/537.36 (KHTML, like Gecko) Chrome/96.0.4664.110 Safari/537.36" etag="ZaipRYWTTjmjqOwV6ONn" version="13.5.8" type="github">
  <diagram id="7dsps4ZbbkRk1TxTjOLB" name="Page-1">
    <mxGraphModel dx="2066" dy="1072" grid="1" gridSize="10" guides="1" tooltips="1" connect="1" arrows="1" fold="1" page="1" pageScale="1" pageWidth="827" pageHeight="1169" math="0" shadow="0">
      <root>
        <mxCell id="0" />
        <mxCell id="1" parent="0" />
      </root>
    </mxGraphModel>
  </diagram>
</mxfile>
